<?xml version="1.0" encoding="utf-8"?>
<svg viewBox="-0.84 0 1365.079 274.731" width="1365.079" height="274.731" fill="none" xmlns="http://www.w3.org/2000/svg">
  <defs>
    <clipPath id="clip0_18_59">
      <rect width="1366" height="900" fill="white"/>
    </clipPath>
  </defs>
  <g clip-path="url(#clip0_18_59)" transform="matrix(1, 0, 0, 1, -1.592004, -624.81604)">
    <path d="M0 627L37.9444 637.95C75.8889 649.05 151.778 670.95 227.667 671.25C303.556 671.55 379.444 649.95 455.333 644.7C531.222 639.45 607.111 650.55 683 652.05C758.889 653.55 834.778 645.45 910.667 645.75C986.556 646.05 1062.44 654.45 1138.33 653.55C1214.22 652.5 1290.11 642 1328.06 636.75L1366 631.5V901.5H1328.06C1290.11 901.5 1214.22 901.5 1138.33 901.5C1062.44 901.5 986.556 901.5 910.667 901.5C834.778 901.5 758.889 901.5 683 901.5C607.111 901.5 531.222 901.5 455.333 901.5C379.444 901.5 303.556 901.5 227.667 901.5C151.778 901.5 75.8889 901.5 37.9444 901.5H0V627Z" fill="#76FF03"/>
    <path d="M0 676.5L37.9444 685.5C75.8889 694.5 151.778 712.5 227.667 709.2C303.556 706.05 379.444 681.45 455.333 682.05C531.222 682.5 607.111 708 683 715.5C758.889 723 834.778 712.5 910.667 713.7C986.556 715.05 1062.44 727.95 1138.33 730.2C1214.22 732.45 1290.11 724.05 1328.06 719.7L1366 715.5V901.5H1328.06C1290.11 901.5 1214.22 901.5 1138.33 901.5C1062.44 901.5 986.556 901.5 910.667 901.5C834.778 901.5 758.889 901.5 683 901.5C607.111 901.5 531.222 901.5 455.333 901.5C379.444 901.5 303.556 901.5 227.667 901.5C151.778 901.5 75.8889 901.5 37.9444 901.5H0V676.5Z" fill="#00E384"/>
    <path d="M0 724.5L37.9444 721.05C75.8889 717.45 151.778 710.55 227.667 715.5C303.556 720.45 379.444 737.55 455.333 740.7C531.222 744 607.111 733.5 683 731.25C758.889 729 834.778 735 910.667 742.8C986.556 750.45 1062.44 760.05 1138.33 763.5C1214.22 766.95 1290.11 764.55 1328.06 763.2L1366 762V901.5H1328.06C1290.11 901.5 1214.22 901.5 1138.33 901.5C1062.44 901.5 986.556 901.5 910.667 901.5C834.778 901.5 758.889 901.5 683 901.5C607.111 901.5 531.222 901.5 455.333 901.5C379.444 901.5 303.556 901.5 227.667 901.5C151.778 901.5 75.8889 901.5 37.9444 901.5H0V724.5Z" fill="#00BEA8"/>
    <path d="M0 760.5L37.9444 768C75.8889 775.5 151.778 790.5 227.667 799.95C303.556 809.55 379.444 813.45 455.333 808.2C531.222 802.95 607.111 788.55 683 787.5C758.889 786.45 834.778 799.05 910.667 805.2C986.556 811.5 1062.44 811.5 1138.33 805.2C1214.22 799.05 1290.11 786.45 1328.06 780.3L1366 774V901.5H1328.06C1290.11 901.5 1214.22 901.5 1138.33 901.5C1062.44 901.5 986.556 901.5 910.667 901.5C834.778 901.5 758.889 901.5 683 901.5C607.111 901.5 531.222 901.5 455.333 901.5C379.444 901.5 303.556 901.5 227.667 901.5C151.778 901.5 75.8889 901.5 37.9444 901.5H0V760.5Z" fill="#3396A0"/>
    <path d="M0 814.5L37.9444 816.3C75.8889 817.95 151.778 821.55 227.667 827.25C303.556 832.95 379.444 841.05 455.333 847.8C531.222 854.55 607.111 859.95 683 858.75C758.889 857.55 834.778 849.45 910.667 842.25C986.556 835.05 1062.44 828.45 1138.33 832.5C1214.22 836.55 1290.11 850.95 1328.06 858.3L1366 865.5V901.5H1328.06C1290.11 901.5 1214.22 901.5 1138.33 901.5C1062.44 901.5 986.556 901.5 910.667 901.5C834.778 901.5 758.889 901.5 683 901.5C607.111 901.5 531.222 901.5 455.333 901.5C379.444 901.5 303.556 901.5 227.667 901.5C151.778 901.5 75.8889 901.5 37.9444 901.5H0V814.5Z" fill="#546E7A"/>
  </g>
</svg>