<?xml version="1.0" encoding="utf-8"?>
<svg viewBox="-0.84 4.531 1360.548 268.69" width="1360.548" height="268.69" fill="none" xmlns="http://www.w3.org/2000/svg">
  <path d="M -0.591 270.612 L 37.353 259.662 C 75.298 248.562 151.187 226.662 227.076 226.362 C 302.965 226.062 378.853 247.662 454.742 252.912 C 530.631 258.162 606.52 247.062 682.409 245.562 C 758.298 244.062 834.187 252.162 910.076 251.862 C 985.965 251.562 1061.849 243.162 1137.739 244.062 C 1213.629 245.112 1289.519 255.612 1327.469 260.862 L 1365.409 266.112 L 1365.409 0.612 L 1327.469 0.612 C 1289.519 0.612 1213.629 0.612 1137.739 0.612 C 1061.849 0.612 985.965 0.612 910.076 0.612 C 834.187 0.612 758.298 0.612 682.409 0.612 C 606.52 0.612 530.631 0.612 454.742 0.612 C 378.853 0.612 302.965 0.612 227.076 0.612 C 151.187 0.612 75.298 0.612 37.353 0.612 L -0.591 0.612 L -0.591 270.612 Z" fill="#76FF03"/>
  <path d="M -0.591 221.112 L 37.353 212.112 C 75.298 203.112 151.187 185.112 227.076 188.412 C 302.965 191.562 378.853 216.162 454.742 215.562 C 530.631 215.112 606.52 189.612 682.409 182.112 C 758.298 174.612 834.187 185.112 910.076 183.912 C 985.965 182.562 1061.849 169.662 1137.739 167.412 C 1213.629 165.162 1289.519 173.562 1327.469 177.912 L 1365.409 182.112 L 1365.409 0.612 L 1327.469 0.612 C 1289.519 0.612 1213.629 0.612 1137.739 0.612 C 1061.849 0.612 985.965 0.612 910.076 0.612 C 834.187 0.612 758.298 0.612 682.409 0.612 C 606.52 0.612 530.631 0.612 454.742 0.612 C 378.853 0.612 302.965 0.612 227.076 0.612 C 151.187 0.612 75.298 0.612 37.353 0.612 L -0.591 0.612 L -0.591 221.112 Z" fill="#00E384"/>
  <path d="M -0.591 173.112 L 37.353 176.562 C 75.298 180.162 151.187 187.062 227.076 182.112 C 302.965 177.162 378.853 160.062 454.742 156.912 C 530.631 153.612 606.52 164.112 682.409 166.362 C 758.298 168.612 834.187 162.612 910.076 154.812 C 985.965 147.162 1061.849 137.562 1137.739 134.112 C 1213.629 130.662 1289.519 133.062 1327.469 134.412 L 1365.409 135.612 L 1365.409 0.612 L 1327.469 0.612 C 1289.519 0.612 1213.629 0.612 1137.739 0.612 C 1061.849 0.612 985.965 0.612 910.076 0.612 C 834.187 0.612 758.298 0.612 682.409 0.612 C 606.52 0.612 530.631 0.612 454.742 0.612 C 378.853 0.612 302.965 0.612 227.076 0.612 C 151.187 0.612 75.298 0.612 37.353 0.612 L -0.591 0.612 L -0.591 173.112 Z" fill="#00BEA8"/>
  <path d="M -0.591 137.112 L 37.353 129.612 C 75.298 122.112 151.187 107.112 227.076 97.662 C 302.965 88.062 378.853 84.162 454.742 89.412 C 530.631 94.662 606.52 109.062 682.409 110.112 C 758.298 111.162 834.187 98.562 910.076 92.412 C 985.965 86.112 1061.849 86.112 1137.739 92.412 C 1213.629 98.562 1289.519 111.162 1327.469 117.312 L 1365.409 123.612 L 1365.409 0.612 L 1327.469 0.612 C 1289.519 0.612 1213.629 0.612 1137.739 0.612 C 1061.849 0.612 985.965 0.612 910.076 0.612 C 834.187 0.612 758.298 0.612 682.409 0.612 C 606.52 0.612 530.631 0.612 454.742 0.612 C 378.853 0.612 302.965 0.612 227.076 0.612 C 151.187 0.612 75.298 0.612 37.353 0.612 L -0.591 0.612 L -0.591 137.112 Z" fill="#3396A0"/>
  <path d="M -0.591 83.112 L 37.353 81.312 C 75.298 79.662 151.187 76.062 227.076 70.362 C 302.965 64.662 378.853 56.562 454.742 49.812 C 530.631 43.062 606.52 37.662 682.409 38.862 C 758.298 40.062 834.187 48.162 910.076 55.362 C 985.965 62.562 1061.849 69.162 1137.739 65.112 C 1213.629 61.062 1289.519 46.662 1327.469 39.312 L 1365.409 32.112 L 1365.409 0.612 L 1327.469 0.612 C 1289.519 0.612 1213.629 0.612 1137.739 0.612 C 1061.849 0.612 985.965 0.612 910.076 0.612 C 834.187 0.612 758.298 0.612 682.409 0.612 C 606.52 0.612 530.631 0.612 454.742 0.612 C 378.853 0.612 302.965 0.612 227.076 0.612 C 151.187 0.612 75.298 0.612 37.353 0.612 L -0.591 0.612 L -0.591 83.112 Z" fill="#546E7A"/>
</svg>